<svg id="Layer_1" data-name="Layer 1" xmlns="http://www.w3.org/2000/svg" viewBox="0 0 400 255"><defs><style>.cls-1{fill:none;}.cls-2,.cls-4{fill:#ddaeff;}.cls-3,.cls-5{fill:#b4c1ff;}.cls-4{stroke:#ddaeff;}.cls-4,.cls-5{stroke-miterlimit:10;stroke-width:14px;}.cls-5{stroke:#b4c1ff;}</style></defs><title>omniset-io-logo</title><path class="cls-1" d="M231.06,138.59l-1-.67Z"/><path class="cls-1" d="M245.56,147.61l-1-.53Z"/><path class="cls-1" d="M228.92,137.07l-.95-.68Z"/><path class="cls-1" d="M224.58,133.86l-.89-.68Z"/><path class="cls-1" d="M235.29,141.45l-1-.65Z"/><path class="cls-1" d="M226.77,135.5c-.31-.23-.62-.45-.93-.69C226.15,135.05,226.46,135.27,226.77,135.5Z"/><path class="cls-1" d="M243.54,146.49l-1-.55Z"/><path class="cls-1" d="M237.38,142.79l-1-.62Z"/><path class="cls-1" d="M241.5,145.31l-1-.57Z"/><path class="cls-1" d="M239.44,144.08l-1-.6Z"/><path class="cls-1" d="M233.19,140.05l-1-.66Z"/><path class="cls-1" d="M180.37,128.65l-1.06.86Z"/><path class="cls-1" d="M220.15,121.85l1-.83Z"/><path class="cls-1" d="M178.23,130.39l-1,.84Z"/><path class="cls-1" d="M222.29,120.15l1-.8Z"/><path class="cls-1" d="M222.32,132.11l-.78-.6Z"/><path class="cls-1" d="M176.09,132.08l-1,.82Z"/><path class="cls-1" d="M217.22,124.25l-.62.51a10.09,10.09,0,0,0-1.27,1.65l1.91,1.61A2.46,2.46,0,0,1,217.22,124.25Z"/><path class="cls-1" d="M219.83,130.14l-.45-.36Z"/><path class="cls-1" d="M224.42,118.51l1-.78Z"/><path class="cls-1" d="M325.72,126.33a1.49,1.49,0,0,0,0-.21,1.36,1.36,0,0,0,0-.2A2.8,2.8,0,0,1,325.72,126.33Z"/><path class="cls-1" d="M174,133.73c-.34.26-.68.53-1,.78C173.28,134.26,173.62,134,174,133.73Z"/><path class="cls-1" d="M271.45,157.16l-.75-.13Z"/><path class="cls-1" d="M273.1,157.39l-.71-.1Z"/><path class="cls-1" d="M274.71,157.55l-.65-.07Z"/><path class="cls-1" d="M268.07,156.52l-.8-.18Z"/><path class="cls-1" d="M269.78,156.87l-.78-.15Z"/><path class="cls-1" d="M286.62,157.27l-1.06.1Z"/><path class="cls-1" d="M284.09,157.47l-1,.07Z"/><path class="cls-1" d="M289.05,157l-1.05.14Z"/><path class="cls-1" d="M266.33,156.11l-.81-.22Z"/><path class="cls-1" d="M281.32,157.61c-.28,0-.56,0-.85,0C280.76,157.64,281,157.62,281.32,157.61Z"/><path class="cls-1" d="M264.57,155.64l-.84-.25Z"/><path class="cls-1" d="M255.35,152.36l-.91-.39Z"/><path class="cls-1" d="M251.49,150.63l-.93-.44Z"/><path class="cls-1" d="M253.43,151.52l-.92-.41Z"/><path class="cls-1" d="M249.54,149.68l-.95-.47Z"/><path class="cls-1" d="M261,154.5l-.86-.3Z"/><path class="cls-1" d="M262.78,155.1l-.86-.27Z"/><path class="cls-1" d="M247.55,148.67l-1-.5Z"/><path class="cls-1" d="M259.11,153.85l-.88-.33Z"/><path class="cls-1" d="M257.24,153.13l-.89-.36Z"/><path class="cls-1" d="M276.29,157.64l-.54,0Z"/><path class="cls-1" d="M115.33,157.54l-1-.07Z"/><path class="cls-1" d="M117.9,157.64c-.29,0-.56,0-.85,0C117.34,157.62,117.61,157.64,117.9,157.64Z"/><path class="cls-1" d="M108,156.84l-1-.16Z"/><path class="cls-1" d="M110.37,157.14l-1-.13Z"/><path class="cls-1" d="M122.66,157.61l-.59,0Z"/><path class="cls-1" d="M112.82,157.37l-1.07-.1Z"/><path class="cls-1" d="M129.27,156.74l-.77.15Z"/><path class="cls-1" d="M127.6,157.05l-.76.12Z"/><path class="cls-1" d="M125.94,157.3c-.24,0-.48.07-.72.09C125.46,157.37,125.7,157.33,125.94,157.3Z"/><path class="cls-1" d="M124.31,157.48l-.68.07Z"/><path class="cls-1" d="M97.16,154.37l-.92-.33Z"/><path class="cls-1" d="M93.33,152.94l-.85-.38Z"/><path class="cls-1" d="M91.53,152.14l-.82-.41Z"/><path class="cls-1" d="M171.84,135.33l-1,.75Z"/><path class="cls-1" d="M105.69,156.47l-1-.2Z"/><path class="cls-1" d="M89.8,151.27c-.27-.14-.52-.29-.79-.44C89.28,151,89.53,151.13,89.8,151.27Z"/><path class="cls-1" d="M103.45,156l-1-.23Z"/><path class="cls-1" d="M101.29,155.54l-1-.26Z"/><path class="cls-1" d="M99.19,155l-1-.3Z"/><path class="cls-1" d="M131,156.37l-.79.18Z"/><path class="cls-1" d="M95.21,153.68l-.89-.35Z"/><path class="cls-1" d="M161.43,142.51l-1,.64Z"/><path class="cls-1" d="M151.35,148.39l-.94.5Z"/><path class="cls-1" d="M159.39,143.8l-1,.61Z"/><path class="cls-1" d="M155.34,146.2l-1,.56Z"/><path class="cls-1" d="M153.34,147.33l-1,.52Z"/><path class="cls-1" d="M157.36,145l-1,.58Z"/><path class="cls-1" d="M132.72,155.93l-.83.22Z"/><path class="cls-1" d="M169.74,136.86l-1,.74Z"/><path class="cls-1" d="M163.49,141.18c-.34.22-.67.45-1,.66C162.82,141.63,163.15,141.4,163.49,141.18Z"/><path class="cls-1" d="M165.57,139.79l-1,.69Z"/><path class="cls-1" d="M167.65,138.35l-1,.72Z"/><path class="cls-1" d="M139.89,153.61l-.87.33Z"/><path class="cls-1" d="M88.15,150.35c-.26-.15-.5-.31-.75-.47C87.65,150,87.89,150.2,88.15,150.35Z"/><path class="cls-1" d="M136.25,154.89l-.85.27Z"/><path class="cls-1" d="M134.47,155.44l-.84.25Z"/><path class="cls-1" d="M147.46,150.35c-.31.15-.62.31-.94.45C146.84,150.66,147.15,150.5,147.46,150.35Z"/><path class="cls-1" d="M149.4,149.4l-1,.47Z"/><path class="cls-1" d="M141.76,152.88l-.9.36Z"/><path class="cls-1" d="M145.54,151.25l-.93.42Z"/><path class="cls-1" d="M143.64,152.09l-.92.4Z"/><path class="cls-1" d="M138.06,154.28l-.86.3Z"/><path class="cls-1" d="M313.29,103.91l.69.53Z"/><path class="cls-1" d="M256.64,99.35l.87-.35Z"/><path class="cls-1" d="M262.14,97.35l.83-.27Z"/><path class="cls-1" d="M321.5,112.75l.41.73Z"/><path class="cls-1" d="M252.85,101l.91-.41Z"/><path class="cls-1" d="M311.8,102.87l.72.5Z"/><path class="cls-1" d="M258.49,98.63l.87-.33Z"/><path class="cls-1" d="M260.32,98l.85-.3Z"/><path class="cls-1" d="M308.57,101c.27.14.53.29.79.44C309.1,101.26,308.84,101.11,308.57,101Z"/><path class="cls-1" d="M310.22,101.89l.76.47Z"/><path class="cls-1" d="M314.71,105l.65.56Z"/><path class="cls-1" d="M319.57,110c.17.22.32.45.49.67C319.89,110.4,319.74,110.17,319.57,110Z"/><path class="cls-1" d="M245,104.91l1-.52Z"/><path class="cls-1" d="M320.58,111.33c.15.22.3.46.45.69C320.88,111.79,320.73,111.55,320.58,111.33Z"/><path class="cls-1" d="M316.05,106.16c.21.19.4.39.6.58C316.45,106.55,316.26,106.35,316.05,106.16Z"/><path class="cls-1" d="M247,103.85l1-.5Z"/><path class="cls-1" d="M243.05,106l.95-.54Z"/><path class="cls-1" d="M318.48,108.64c.18.2.35.42.53.64C318.83,109.06,318.66,108.84,318.48,108.64Z"/><path class="cls-1" d="M317.3,107.37c.2.2.38.41.57.61C317.68,107.78,317.5,107.57,317.3,107.37Z"/><path class="cls-1" d="M250.93,101.88l.92-.44Z"/><path class="cls-1" d="M249,102.84c.31-.16.62-.32.94-.47C249.6,102.52,249.29,102.68,249,102.84Z"/><path class="cls-1" d="M254.76,100.14l.89-.38Z"/><path class="cls-1" d="M292.68,95.77l1,.2Z"/><path class="cls-1" d="M274.07,94.76l.68-.07Z"/><path class="cls-1" d="M272.44,95l.72-.1Z"/><path class="cls-1" d="M294.92,96.2l1,.23Z"/><path class="cls-1" d="M275.72,94.63l.59,0Z"/><path class="cls-1" d="M290.38,95.41l1,.16Z"/><path class="cls-1" d="M283.05,94.7l1,.07Z"/><path class="cls-1" d="M297.09,96.7l1,.26Z"/><path class="cls-1" d="M288,95.11l1.05.13Z"/><path class="cls-1" d="M280.47,94.6l.85,0Z"/><path class="cls-1" d="M301.21,97.88l.92.32Z"/><path class="cls-1" d="M305,99.3l.85.38Z"/><path class="cls-1" d="M291.39,156.68l-1,.16Z"/><path class="cls-1" d="M265.66,96.31l.82-.22Z"/><path class="cls-1" d="M263.91,96.8c.28-.08.55-.17.83-.24C264.46,96.63,264.19,96.72,263.91,96.8Z"/><path class="cls-1" d="M299.18,97.26l1,.29Z"/><path class="cls-1" d="M267.41,95.88l.78-.19Z"/><path class="cls-1" d="M270.77,95.2l.76-.13Z"/><path class="cls-1" d="M269.11,95.51l.77-.16Z"/><path class="cls-1" d="M306.84,100.11l.82.4Z"/><path class="cls-1" d="M303.16,98.56l.89.35Z"/><path class="cls-1" d="M315.36,146.67l-.65.56Z"/><path class="cls-1" d="M311,149.88c-.25.16-.5.32-.76.47C310.48,150.2,310.73,150,311,149.88Z"/><path class="cls-1" d="M314,147.8c-.23.18-.45.36-.69.53C313.53,148.16,313.75,148,314,147.8Z"/><path class="cls-1" d="M241,107.21l1-.57Z"/><path class="cls-1" d="M317.88,144.26c-.19.2-.38.41-.58.61C317.5,144.67,317.69,144.46,317.88,144.26Z"/><path class="cls-1" d="M316.66,145.49c-.2.2-.4.4-.61.59C316.26,145.89,316.46,145.69,316.66,145.49Z"/><path class="cls-1" d="M319,143l-.53.64Z"/><path class="cls-1" d="M321.91,138.77l-.41.72Z"/><path class="cls-1" d="M321,140.22l-.45.7Z"/><path class="cls-1" d="M320.06,141.62c-.16.22-.32.45-.49.67C319.74,142.07,319.9,141.84,320.06,141.62Z"/><path class="cls-1" d="M295.92,155.81l-1,.23Z"/><path class="cls-1" d="M300.15,154.69l-1,.3Z"/><path class="cls-1" d="M298.08,155.28l-1,.26Z"/><path class="cls-1" d="M322.71,137.26c-.13.25-.24.51-.37.75C322.47,137.77,322.58,137.51,322.71,137.26Z"/><path class="cls-1" d="M293.7,156.27l-1,.2Z"/><path class="cls-1" d="M302.13,154l-.92.33Z"/><path class="cls-1" d="M307.66,151.73c-.27.14-.54.28-.82.41C307.12,152,307.39,151.87,307.66,151.73Z"/><path class="cls-1" d="M305.89,152.56l-.85.38Z"/><path class="cls-1" d="M309.36,150.83c-.26.15-.52.3-.79.44C308.84,151.13,309.1,151,309.36,150.83Z"/><path class="cls-1" d="M304.05,153.33l-.89.35Z"/><path class="cls-1" d="M312.52,148.87l-.72.5Z"/><path class="cls-1" d="M324.33,119l.24.83Z"/><path class="cls-1" d="M323.75,117.34c.1.27.19.54.29.8C323.94,117.88,323.85,117.61,323.75,117.34Z"/><path class="cls-1" d="M234.88,111.06l1-.66Z"/><path class="cls-1" d="M324.81,120.66c.08.28.14.56.2.85C325,121.22,324.89,120.94,324.81,120.66Z"/><path class="cls-1" d="M232.82,112.44l1-.68Z"/><path class="cls-1" d="M237,109.72l1-.63Z"/><path class="cls-1" d="M230.74,113.88l1-.7Z"/><path class="cls-1" d="M322.34,114.23c.13.25.24.5.37.75C322.58,114.73,322.47,114.48,322.34,114.23Z"/><path class="cls-1" d="M239,108.44c.33-.2.65-.41,1-.6C239.65,108,239.33,108.24,239,108.44Z"/><path class="cls-1" d="M323.09,115.76c.11.25.22.52.32.77C323.31,116.28,323.2,116,323.09,115.76Z"/><path class="cls-1" d="M324,134.1c-.1.27-.19.54-.29.8C323.85,134.64,323.94,134.37,324,134.1Z"/><path class="cls-1" d="M325,130.74c-.06.28-.12.57-.2.85C324.89,131.31,325,131,325,130.74Z"/><path class="cls-1" d="M324.57,132.44l-.24.83Z"/><path class="cls-1" d="M325.21,122.39c.06.29.1.58.15.87C325.31,123,325.27,122.68,325.21,122.39Z"/><path class="cls-1" d="M325.36,129c-.05.29-.09.59-.15.88C325.27,129.57,325.31,129.27,325.36,129Z"/><path class="cls-1" d="M323.42,135.71l-.33.77Z"/><path class="cls-1" d="M325.52,124.17c0,.29.07.6.1.9C325.59,124.77,325.56,124.46,325.52,124.17Z"/><path class="cls-1" d="M228.63,115.38l1-.74Z"/><path class="cls-1" d="M226.53,116.92l1-.76Z"/><path class="cls-1" d="M325.62,127.18c0,.3-.06.6-.1.9C325.56,127.78,325.59,127.48,325.62,127.18Z"/><path class="cls-1" d="M178.74,122.26a2.43,2.43,0,0,0,.25.2A2.43,2.43,0,0,1,178.74,122.26Z"/><path class="cls-1" d="M109.33,95.24l1-.13Z"/><path class="cls-1" d="M80.5,108c.19-.2.37-.41.57-.61C80.87,107.57,80.69,107.78,80.5,108Z"/><path class="cls-1" d="M73.56,131.59c-.07-.28-.13-.57-.2-.85C73.43,131,73.49,131.31,73.56,131.59Z"/><path class="cls-1" d="M74.05,133.27c-.09-.27-.17-.55-.25-.83C73.88,132.72,74,133,74.05,133.27Z"/><path class="cls-1" d="M94.32,98.91l.89-.35Z"/><path class="cls-1" d="M79.36,109.28c.18-.22.35-.44.54-.64C79.71,108.84,79.54,109.06,79.36,109.28Z"/><path class="cls-1" d="M73.16,129.86,73,129Z"/><path class="cls-1" d="M96.24,98.2l.92-.32Z"/><path class="cls-1" d="M125.28,94.86l.7.09Z"/><path class="cls-1" d="M128.6,95.37l.77.16Z"/><path class="cls-1" d="M126.92,95.08l.75.13Z"/><path class="cls-1" d="M81.72,106.75c.2-.2.4-.4.61-.59C82.12,106.35,81.92,106.55,81.72,106.75Z"/><path class="cls-1" d="M90.71,100.51l.82-.4Z"/><path class="cls-1" d="M132,96.13l.82.22Z"/><path class="cls-1" d="M84.39,104.44l.69-.53Z"/><path class="cls-1" d="M75.29,136.48c-.12-.25-.22-.51-.33-.77C75.07,136,75.17,136.23,75.29,136.48Z"/><path class="cls-1" d="M74.62,134.9c-.1-.26-.19-.53-.28-.8C74.43,134.37,74.52,134.64,74.62,134.9Z"/><path class="cls-1" d="M92.48,99.68l.85-.38Z"/><path class="cls-1" d="M130.31,95.72l.79.19Z"/><path class="cls-1" d="M83,105.57l.65-.56Z"/><path class="cls-1" d="M73.8,119.8c.08-.28.16-.55.25-.83C74,119.25,73.88,119.52,73.8,119.8Z"/><path class="cls-1" d="M75,116.53c.11-.25.21-.52.33-.77C75.17,116,75.07,116.28,75,116.53Z"/><path class="cls-1" d="M114.29,94.77l1-.07Z"/><path class="cls-1" d="M104.67,96l1-.2Z"/><path class="cls-1" d="M73.36,121.51c.07-.29.13-.57.2-.85C73.49,120.94,73.43,121.22,73.36,121.51Z"/><path class="cls-1" d="M73,123.26l.15-.87Z"/><path class="cls-1" d="M75.67,115c.12-.24.24-.5.37-.74C75.91,114.47,75.79,114.73,75.67,115Z"/><path class="cls-1" d="M89,101.41c.27-.15.52-.3.79-.44C89.53,101.11,89.28,101.26,89,101.41Z"/><path class="cls-1" d="M107,95.57l1-.16Z"/><path class="cls-1" d="M74.34,118.14c.09-.26.18-.53.28-.8C74.52,117.61,74.43,117.88,74.34,118.14Z"/><path class="cls-1" d="M111.75,95l1.07-.1Z"/><path class="cls-1" d="M122.08,94.6l.54,0Z"/><path class="cls-1" d="M100.3,97l1-.26Z"/><path class="cls-1" d="M77.35,112c.15-.23.29-.47.45-.69C77.64,111.55,77.5,111.79,77.35,112Z"/><path class="cls-1" d="M72.86,128.08c0-.3-.08-.6-.11-.9C72.78,127.48,72.81,127.78,72.86,128.08Z"/><path class="cls-1" d="M117.05,94.63l.85,0Z"/><path class="cls-1" d="M123.66,94.7c.22,0,.44,0,.65.06C124.1,94.74,123.88,94.71,123.66,94.7Z"/><path class="cls-1" d="M72.75,125.07c0-.3.06-.61.11-.9C72.81,124.46,72.78,124.77,72.75,125.07Z"/><path class="cls-1" d="M78.32,110.62c.16-.22.32-.45.49-.67C78.64,110.17,78.48,110.4,78.32,110.62Z"/><path class="cls-1" d="M102.44,96.43l1-.23Z"/><path class="cls-1" d="M76.46,113.47l.41-.72Z"/><path class="cls-1" d="M98.22,97.55l1-.29Z"/><path class="cls-1" d="M173.8,118.39l.88.67Z"/><path class="cls-1" d="M171.61,116.75l.93.68Z"/><path class="cls-1" d="M82.33,146.08l-.62-.59Z"/><path class="cls-1" d="M176.11,120.17l.72.56Z"/><path class="cls-1" d="M83.66,147.23l-.65-.56Z"/><path class="cls-1" d="M285.56,94.87l1.06.1Z"/><path class="cls-1" d="M165.19,112.2c.33.22.65.43,1,.66C165.84,112.63,165.52,112.42,165.19,112.2Z"/><path class="cls-1" d="M81.07,144.87c-.2-.2-.38-.41-.57-.61C80.69,144.46,80.87,144.67,81.07,144.87Z"/><path class="cls-1" d="M167.31,113.66l1,.67Z"/><path class="cls-1" d="M169.45,115.17l1,.68Z"/><path class="cls-1" d="M218,123.59l1.05-.86Z"/><path class="cls-1" d="M87.4,102.36c.25-.16.49-.32.75-.47C87.89,102,87.65,102.2,87.4,102.36Z"/><path class="cls-1" d="M86.58,149.37c-.25-.16-.48-.33-.72-.5C86.1,149,86.33,149.21,86.58,149.37Z"/><path class="cls-1" d="M163.09,110.8l1,.64Z"/><path class="cls-1" d="M120.54,175.09c28.63,0,59.38-22.7,77-38.17a2.48,2.48,0,0,1,3.25,0c17.64,15.47,48.39,38.17,77,38.17,41.79,0,63.82-21.64,65.44-49-1.62-27.32-23.65-49-65.44-49-28.63,0-59.38,22.69-77,38.16a2.45,2.45,0,0,1-3.25,0c-17.64-15.47-48.39-38.16-77-38.16-41.78,0-63.82,21.64-65.43,49C56.72,153.45,78.76,175.09,120.54,175.09Zm91.75-52.23.13.15a4.8,4.8,0,0,1,.93-2C237.52,100,260.89,88,277.83,88c30.1,0,48.07,13,48.07,34.82,0,1.11-.06,2.19-.16,3.26.1,1.07.16,2.15.16,3.27,0,21.8-18,34.82-48.07,34.82-16.93,0-40.31-12-64.47-33a4.22,4.22,0,0,1-.86-1.79.42.42,0,0,1-.21-.08c-.47-.41-.56-1.77-.42-3.27C211.73,124.61,211.82,123.27,212.29,122.86Zm-139.81,0c0-21.81,18-34.82,48.06-34.82C137.48,88,160.85,100,185,121a4.21,4.21,0,0,1,.87,1.78.33.33,0,0,1,.2.09c.47.41.56,1.76.43,3.27.13,1.5,0,2.85-.43,3.26l-.13-.16a4.8,4.8,0,0,1-.93,2c-24.16,21-47.54,33-64.48,33-30.1,0-48.06-13-48.06-34.82,0-1.12.06-2.2.15-3.27C72.54,125.05,72.48,124,72.48,122.86Z"/><path class="cls-1" d="M181.15,128l.63-.52a11.72,11.72,0,0,0,1.27-1.64c-.64-.55-1.28-1.08-1.91-1.61A2.46,2.46,0,0,1,181.15,128Z"/><path class="cls-1" d="M85.08,148.33l-.69-.53Z"/><path class="cls-1" d="M85.86,103.37l.72-.5Z"/><path class="cls-1" d="M72.65,125.92c0,.07,0,.13,0,.2s0,.14,0,.21A2.8,2.8,0,0,1,72.65,125.92Z"/><path class="cls-1" d="M135.6,97.14l.85.28Z"/><path class="cls-1" d="M139.26,98.4l.88.33Z"/><path class="cls-1" d="M143,99.89q.45.18.9.39Q143.48,100.07,143,99.89Z"/><path class="cls-1" d="M141.13,99.11l.89.36Z"/><path class="cls-1" d="M144.94,100.72l.92.42Z"/><path class="cls-1" d="M77.8,140.92c-.16-.23-.3-.46-.45-.7C77.5,140.46,77.64,140.69,77.8,140.92Z"/><path class="cls-1" d="M76.87,139.49l-.41-.72Z"/><path class="cls-1" d="M76,138c-.13-.24-.25-.49-.37-.74C75.79,137.52,75.91,137.77,76,138Z"/><path class="cls-1" d="M146.88,101.61l.93.45Z"/><path class="cls-1" d="M133.81,96.61l.83.24Z"/><path class="cls-1" d="M137.42,97.74l.87.3Z"/><path class="cls-1" d="M156.88,106.94l1,.56Z"/><path class="cls-1" d="M154.84,105.76l1,.54Z"/><path class="cls-1" d="M161,109.46l1,.61Z"/><path class="cls-1" d="M79.9,143.61c-.19-.21-.36-.43-.54-.64C79.54,143.18,79.71,143.4,79.9,143.61Z"/><path class="cls-1" d="M158.93,108.17c.33.19.65.39,1,.59C159.58,108.56,159.26,108.36,158.93,108.17Z"/><path class="cls-1" d="M78.81,142.29l-.5-.67Z"/><path class="cls-1" d="M150.82,103.57l1,.5Z"/><path class="cls-1" d="M148.84,102.56l.94.47Z"/><path class="cls-1" d="M152.82,104.64c.32.17.64.34,1,.52C153.46,105,153.14,104.81,152.82,104.64Z"/><path class="cls-1" d="M217.24,128l2.14,1.76.45.36,1.71,1.37.78.6,1.37,1.07.89.68,1.26.95c.31.24.62.46.93.69l1.2.89.95.68,1.18.85,1,.67,1.15.8,1,.66,1.12.75,1,.65,1.11.72,1,.62,1.09.69,1,.6,1.09.66,1,.57,1.07.63,1,.55c.35.2.7.4,1.06.59l1,.53,1,.56,1,.5,1,.54.95.47,1,.51.93.44,1,.48.92.41,1,.45.91.39,1,.41.89.36,1,.39.88.33,1,.35.86.3,1,.33.86.27,1,.29.84.25.95.25.81.22.94.23.8.18.93.2.78.15.92.16.75.13.94.13.71.1,1,.09.65.07,1,.06.54,0c.52,0,1,0,1.54,0,.89,0,1.77,0,2.64,0,.29,0,.57,0,.85,0l1.73-.07,1-.07,1.47-.1,1.06-.1,1.38-.13,1.05-.14,1.33-.16,1-.16,1.29-.21,1-.2,1.22-.23,1-.23c.39-.09.79-.17,1.17-.27l1-.26,1.1-.29,1-.3,1.06-.32.92-.33c.35-.12.69-.23,1-.36l.89-.35c.33-.13.67-.25,1-.39l.85-.38.95-.42c.28-.13.55-.27.82-.41l.91-.46c.27-.14.53-.29.79-.44s.58-.31.86-.48.51-.31.76-.47l.82-.51.72-.5.77-.54c.24-.17.46-.35.69-.53s.49-.37.73-.57l.65-.56.69-.59c.21-.19.41-.39.61-.59l.64-.62c.2-.2.39-.41.58-.61l.6-.65L319,143c.19-.23.38-.45.56-.68s.33-.45.49-.67.35-.46.52-.7l.45-.7c.16-.24.32-.48.47-.73l.41-.72c.14-.25.29-.5.43-.76s.24-.5.37-.75.26-.51.38-.78l.33-.77c.11-.27.23-.54.33-.81s.19-.53.29-.8.2-.55.29-.83l.24-.83c.08-.28.17-.56.24-.85s.14-.57.2-.85.14-.59.2-.88.1-.59.15-.88.11-.6.16-.9.07-.6.1-.9.07-.57.1-.85a2.8,2.8,0,0,0,0-.41c0-.29-.06-.57-.1-.85s-.06-.61-.1-.9-.1-.61-.16-.91-.09-.58-.15-.87-.13-.59-.2-.88-.12-.57-.2-.85-.16-.58-.24-.86l-.24-.83c-.09-.28-.2-.55-.29-.83s-.19-.53-.29-.8-.22-.54-.34-.81-.21-.52-.32-.77-.26-.52-.38-.78-.24-.5-.37-.75-.29-.5-.43-.75l-.41-.73c-.15-.25-.32-.49-.47-.73s-.3-.47-.45-.69l-.52-.71c-.17-.22-.32-.45-.49-.67s-.37-.45-.56-.67-.35-.44-.53-.64-.4-.44-.61-.66-.37-.41-.57-.61l-.65-.63c-.2-.19-.39-.39-.6-.58l-.69-.59-.65-.56-.73-.57-.69-.53-.77-.54-.72-.5-.82-.51-.76-.47-.86-.48c-.26-.15-.52-.3-.79-.44l-.91-.46-.82-.4-.95-.43L305,99.3l-1-.39-.89-.35c-.34-.13-.68-.24-1-.36l-.92-.32c-.35-.12-.71-.22-1.06-.33l-1-.29c-.36-.11-.73-.2-1.1-.3l-1-.26-1.17-.27-1-.23L293.7,96l-1-.2-1.29-.2-1-.16-1.33-.17L288,95.11,286.62,95l-1.06-.1-1.47-.1-1-.07-1.73-.07-.85,0q-1.31,0-2.64,0l-1.52,0-.59,0-1,.06-.68.07c-.3,0-.61,0-.91.09l-.72.1-.91.12-.76.13-.89.15-.77.16-.92.18-.78.19-.93.21-.82.22-.92.25c-.28.07-.55.16-.83.24l-.94.28-.83.27-1,.31-.85.3-1,.34-.87.33-1,.37-.87.35-1,.41-.89.38-1,.43-.91.41-1,.46-.92.44-1,.49c-.32.15-.63.31-.94.47l-1,.51-1,.5-1,.54-1,.52-1,.58-.95.54-1.05.61-1,.57-1.05.63c-.33.19-.65.4-1,.6l-1.06.65-1,.63-1.06.68-1,.66-1.06.7-1,.68-1.08.74-1,.7-1.08.76-1,.74-1.08.78-1,.76-1.09.81-1,.78-1.1.84-1,.8-1.1.87-1,.83-1.09.88-1.05.86-.79.66A2.46,2.46,0,0,0,217.24,128Z"/><path class="cls-1" d="M181.14,124.23,179,122.46a2.43,2.43,0,0,1-.25-.2l-1.91-1.53-.72-.56-1.43-1.11-.88-.67-1.26-1-.93-.68-1.21-.9-1-.68-1.17-.84-1-.67-1.15-.8c-.32-.23-.64-.44-1-.66l-1.13-.76-1-.64-1.12-.73-1-.61-1.11-.7c-.32-.2-.64-.4-1-.59l-1.09-.67-1-.56-1.08-.64-1-.54c-.35-.2-.71-.41-1.07-.6s-.63-.35-1-.52-.7-.39-1-.57l-1-.5-1-.54-.94-.47-1-.5-.93-.45-1-.47-.92-.42-1-.44q-.45-.21-.9-.39l-1-.42-.89-.36-1-.38-.88-.33-1-.36-.87-.3-1-.32-.85-.28-1-.29-.83-.24-.95-.26-.82-.22-.94-.22-.79-.19-.94-.19-.77-.16-.93-.16-.75-.13L126,95l-.7-.09-1-.1c-.21,0-.43-.05-.65-.06l-1-.07-.54,0-1.54,0q-1.33,0-2.64,0l-.85,0-1.72.07-1,.07-1.47.1-1.07.1-1.38.14-1,.13-1.33.17-1,.16-1.3.2-1,.2-1.22.23-1,.23-1.15.27-1,.26c-.37.1-.75.19-1.11.3l-1,.29c-.35.11-.71.21-1.06.33l-.92.32c-.34.12-.69.23-1,.36l-.89.35-1,.39-.85.38-1,.43-.82.4-.91.46c-.27.14-.52.29-.79.44l-.86.48c-.26.15-.5.31-.75.47l-.82.51-.72.5-.78.54-.69.53-.73.57-.65.56-.68.59c-.21.19-.41.39-.61.59l-.65.62c-.2.2-.38.41-.57.61s-.41.43-.6.66-.36.42-.54.64-.37.44-.55.67-.33.45-.49.67-.36.47-.52.71-.3.46-.45.69l-.48.73-.41.72c-.14.25-.29.5-.42.76s-.25.5-.37.74-.26.52-.38.79-.22.52-.33.77l-.34.81c-.1.27-.19.54-.28.8s-.2.55-.29.83-.17.55-.25.83-.17.57-.24.86-.13.56-.2.85-.14.58-.2.88l-.15.87c-.05.3-.11.6-.15.91s-.08.6-.11.9-.07.56-.1.85a2.8,2.8,0,0,0,0,.41c0,.28.07.56.1.85s.06.6.11.9.1.6.15.9l.15.88c.06.29.13.58.2.88s.13.57.2.85.16.57.24.85.16.56.25.83.19.55.29.83.18.54.28.8.22.54.34.81.21.52.33.77.25.53.38.79.24.5.37.74.28.51.42.76l.41.72.48.73c.15.24.29.47.45.7s.34.47.51.7l.5.67c.17.23.37.45.55.68s.35.43.54.64.4.43.6.65.37.41.57.61l.64.62.62.59.68.59.65.56c.24.2.49.38.73.57l.69.53c.25.19.52.36.78.54s.47.34.72.5.54.34.82.51.49.32.75.47.57.32.86.48.52.3.79.44l.91.46.82.41,1,.42.85.38c.33.14.66.26,1,.39l.89.35c.34.13.69.24,1,.36l.92.33,1.06.32,1,.3,1.11.29,1,.26c.38.1.77.18,1.15.27l1,.23,1.22.23,1,.2,1.3.21,1,.16,1.33.17,1,.13,1.38.13,1.07.1,1.47.1,1,.07,1.72.07c.29,0,.56,0,.85,0,.87,0,1.75,0,2.64,0l1.53,0,.59,0,1-.06.68-.07.91-.09c.24,0,.48-.06.72-.09l.9-.13.76-.12.9-.16.77-.15.91-.19.79-.18.92-.22.83-.22.91-.24.84-.25.93-.28.85-.27.95-.31.86-.3,1-.34.87-.33,1-.37.9-.36,1-.39.92-.4c.32-.14.65-.27,1-.42l.93-.42,1-.45c.32-.14.63-.3.94-.45l1-.48,1-.47,1-.51.94-.5c.34-.18.69-.35,1-.54l1-.52,1-.57,1-.56,1-.59,1-.58,1-.62,1-.61,1-.65,1-.64,1-.67c.34-.21.67-.44,1-.66l1.06-.7,1-.69,1.06-.72,1-.72,1.07-.75,1-.74,1.08-.78,1-.75,1.09-.82c.35-.25.69-.52,1-.78l1.09-.83,1-.82,1.09-.85,1-.84,1.08-.88,1.06-.86.78-.65A2.46,2.46,0,0,0,181.14,124.23Z"/><path class="cls-2" d="M212.29,122.86c-.47.41-.56,1.75-.42,3.26a17.85,17.85,0,0,1,.55-3.11Z"/><path class="cls-2" d="M325.72,126.38c0,.27-.06.53-.1.8s-.06.6-.1.9-.1.6-.16.9-.09.59-.15.88-.13.58-.2.88-.12.57-.2.85-.16.57-.24.85l-.24.83c-.09.28-.2.55-.29.83s-.19.54-.29.8-.22.54-.33.81l-.33.77c-.12.27-.25.52-.38.78s-.24.51-.37.75-.29.51-.43.76l-.41.72c-.15.25-.31.49-.47.73l-.45.7c-.17.24-.35.47-.52.7s-.32.45-.49.67-.37.45-.56.68l-.53.64-.6.65c-.19.2-.38.41-.58.61l-.64.62c-.2.2-.4.4-.61.59l-.69.59-.65.56c-.24.2-.48.38-.73.57s-.45.36-.69.53l-.77.54-.72.5-.82.51c-.25.16-.5.32-.76.47s-.57.32-.86.48-.52.3-.79.44l-.91.46c-.27.14-.54.28-.82.41l-.95.42-.85.38c-.32.14-.66.26-1,.39l-.89.35c-.34.13-.68.24-1,.36l-.92.33-1.06.32-1,.3-1.1.29-1,.26c-.38.1-.78.18-1.17.27l-1,.23-1.22.23-1,.2-1.29.21-1,.16-1.33.16-1.05.14-1.38.13-1.06.1-1.47.1-1,.07-1.73.07c-.28,0-.56,0-.85,0-.87,0-1.75,0-2.64,0-.51,0-1,0-1.54,0l-.54,0-1-.06-.65-.07-1-.09-.71-.1-.94-.13-.75-.13-.92-.16-.78-.15-.93-.2-.8-.18-.94-.23-.81-.22-.95-.25-.84-.25-1-.29-.86-.27-1-.33-.86-.3-1-.35-.88-.33-1-.39-.89-.36-1-.41-.91-.39-1-.45-.92-.41-1-.48-.93-.44-1-.51-.95-.47-1-.54-1-.5-1-.56-1-.53c-.36-.19-.71-.39-1.06-.59l-1-.55-1.07-.63-1-.57-1.09-.66-1-.6-1.09-.69-1-.62-1.11-.72-1-.65-1.12-.75-1-.66-1.15-.8-1-.67-1.18-.85-.95-.68-1.2-.89c-.31-.23-.62-.45-.93-.69l-1.26-.95-.89-.68-1.37-1.07-.78-.6-1.71-1.37-.45-.36L217.24,128h0l-1.91-1.61c-1,1.4-2.16,3.13-2.83,3.06a4.22,4.22,0,0,0,.86,1.79c24.16,21,47.54,33,64.47,33,30.1,0,48.07-13,48.07-34.82,0-1.12-.06-2.2-.16-3.27a1.49,1.49,0,0,1,0,.21Z"/><path class="cls-2" d="M267.27,156.34l-.94-.23Z"/><path class="cls-2" d="M323.09,136.48c-.12.27-.25.52-.38.78C322.84,137,323,136.75,323.09,136.48Z"/><path class="cls-2" d="M269,156.72l-.93-.2Z"/><path class="cls-2" d="M265.52,155.89l-.95-.25Z"/><path class="cls-2" d="M323.75,134.9c-.1.27-.22.54-.33.81C323.53,135.44,323.65,135.17,323.75,134.9Z"/><path class="cls-2" d="M322.34,138c-.14.26-.29.51-.43.76C322.05,138.52,322.2,138.27,322.34,138Z"/><path class="cls-2" d="M324.33,133.27c-.09.28-.2.55-.29.83C324.13,133.82,324.24,133.55,324.33,133.27Z"/><path class="cls-2" d="M274.06,157.48l-1-.09Z"/><path class="cls-2" d="M272.39,157.29l-.94-.13Z"/><path class="cls-2" d="M321.5,139.49c-.15.25-.31.49-.47.73C321.19,140,321.35,139.74,321.5,139.49Z"/><path class="cls-2" d="M270.7,157l-.92-.16Z"/><path class="cls-2" d="M320.58,140.92c-.17.24-.35.47-.52.7C320.23,141.39,320.41,141.16,320.58,140.92Z"/><path class="cls-2" d="M325.72,126.38v0c0,.28-.06.56-.1.85C325.66,126.91,325.7,126.65,325.72,126.38Z"/><path class="cls-2" d="M263.73,155.39l-1-.29Z"/><path class="cls-2" d="M256.35,152.77l-1-.41Z"/><path class="cls-2" d="M254.44,152l-1-.45Z"/><path class="cls-2" d="M252.51,151.11l-1-.48Z"/><path class="cls-2" d="M258.23,153.52l-1-.39Z"/><path class="cls-2" d="M324.81,131.59c-.07.29-.16.57-.24.85C324.65,132.16,324.74,131.88,324.81,131.59Z"/><path class="cls-2" d="M325.52,128.08c0,.3-.1.6-.16.9C325.42,128.68,325.47,128.38,325.52,128.08Z"/><path class="cls-2" d="M261.92,154.83l-1-.33Z"/><path class="cls-2" d="M260.09,154.2l-1-.35Z"/><path class="cls-2" d="M325.21,129.86c-.06.29-.13.58-.2.88C325.08,130.44,325.15,130.15,325.21,129.86Z"/><path class="cls-2" d="M314.71,147.23c-.24.2-.48.38-.73.57C314.23,147.61,314.47,147.43,314.71,147.23Z"/><path class="cls-2" d="M310.22,150.35c-.28.17-.57.32-.86.48C309.65,150.67,309.94,150.52,310.22,150.35Z"/><path class="cls-2" d="M292.68,156.47l-1.29.21Z"/><path class="cls-2" d="M308.57,151.27l-.91.46Z"/><path class="cls-2" d="M288,157.14l-1.38.13Z"/><path class="cls-2" d="M290.38,156.84l-1.33.16Z"/><path class="cls-2" d="M306.84,152.14l-.95.42Z"/><path class="cls-2" d="M299.18,155l-1.1.29Z"/><path class="cls-2" d="M303.16,153.68c-.34.13-.68.24-1,.36C302.48,153.92,302.82,153.81,303.16,153.68Z"/><path class="cls-2" d="M294.92,156l-1.22.23Z"/><path class="cls-2" d="M297.09,155.54c-.38.1-.78.18-1.17.27C296.31,155.72,296.71,155.64,297.09,155.54Z"/><path class="cls-2" d="M305,152.94c-.32.14-.66.26-1,.39C304.38,153.2,304.72,153.08,305,152.94Z"/><path class="cls-2" d="M285.56,157.37l-1.47.1Z"/><path class="cls-2" d="M317.3,144.87l-.64.62Z"/><path class="cls-2" d="M280.47,157.64c-.87,0-1.75,0-2.64,0C278.72,157.68,279.6,157.67,280.47,157.64Z"/><path class="cls-2" d="M277.83,157.68c-.51,0-1,0-1.54,0C276.81,157.67,277.32,157.68,277.83,157.68Z"/><path class="cls-2" d="M311.8,149.37l-.82.51Z"/><path class="cls-2" d="M318.48,143.61l-.6.65Z"/><path class="cls-2" d="M275.75,157.61l-1-.06Z"/><path class="cls-2" d="M313.29,148.33l-.77.54Z"/><path class="cls-2" d="M319.57,142.29c-.18.23-.37.45-.56.68C319.2,142.74,319.39,142.52,319.57,142.29Z"/><path class="cls-2" d="M283.05,157.54l-1.73.07Z"/><path class="cls-2" d="M316.05,146.08l-.69.59Z"/><path class="cls-2" d="M301.21,154.37l-1.06.32Z"/><path class="cls-2" d="M250.56,150.19l-1-.51Z"/><path class="cls-2" d="M232.21,139.39l-1.15-.8Z"/><path class="cls-2" d="M230.1,137.92l-1.18-.85Z"/><path class="cls-2" d="M240.53,144.74l-1.09-.66Z"/><path class="cls-2" d="M236.4,142.17l-1.11-.72Z"/><path class="cls-2" d="M238.47,143.48l-1.09-.69Z"/><path class="cls-2" d="M234.31,140.8l-1.12-.75Z"/><path class="cls-2" d="M217.24,128l2.14,1.76L217.24,128Z"/><path class="cls-2" d="M221.54,131.51l-1.71-1.37Z"/><path class="cls-2" d="M228,136.39l-1.2-.89Z"/><path class="cls-2" d="M223.69,133.18l-1.37-1.07Z"/><path class="cls-2" d="M225.84,134.81l-1.26-.95Z"/><path class="cls-2" d="M242.57,145.94l-1.07-.63Z"/><path class="cls-2" d="M244.6,147.08c-.36-.19-.71-.39-1.06-.59C243.89,146.69,244.24,146.89,244.6,147.08Z"/><path class="cls-2" d="M246.6,148.17l-1-.56Z"/><path class="cls-2" d="M248.59,149.21l-1-.54Z"/><path class="cls-2" d="M120.54,164.21c16.94,0,40.32-12,64.48-33a4.8,4.8,0,0,0,.93-2l-2.56-3.1-.34-.29a11.72,11.72,0,0,1-1.27,1.64l-.63.52,0,0-.76.63-1.06.86-1.08.88-1,.84-1.09.85-1,.82-1.09.83c-.34.26-.68.53-1,.78l-1.09.82-1,.75-1.08.78-1,.74-1.07.75-1,.72-1.06.72-1,.69-1.06.7c-.34.22-.67.45-1,.66l-1,.67-1,.64-1,.65-1,.61-1,.62-1,.58-1,.59-1,.56-1,.57-1,.52c-.34.19-.69.36-1,.54l-.94.5-1,.51-1,.47-1,.48c-.31.15-.62.31-.94.45l-1,.45-.93.42c-.32.15-.65.28-1,.42l-.92.4-1,.39-.9.36-1,.37-.87.33-1,.34-.86.3-.95.31-.85.27-.93.28-.84.25-.91.24-.83.22-.92.22-.79.18-.91.19-.77.15-.9.16-.76.12-.9.13c-.24,0-.48.07-.72.09l-.91.09-.68.07-1,.06-.59,0-1.53,0c-.89,0-1.77,0-2.64,0-.29,0-.56,0-.85,0l-1.72-.07-1-.07-1.47-.1-1.07-.1-1.38-.13-1-.13-1.33-.17-1-.16-1.3-.21-1-.2-1.22-.23-1-.23c-.38-.09-.77-.17-1.15-.27l-1-.26L99.19,155l-1-.3-1.06-.32-.92-.33c-.34-.12-.69-.23-1-.36l-.89-.35c-.33-.13-.66-.25-1-.39l-.85-.38-1-.42-.82-.41-.91-.46c-.27-.14-.52-.29-.79-.44s-.58-.31-.86-.48-.5-.31-.75-.47-.56-.33-.82-.51-.48-.33-.72-.5-.53-.35-.78-.54l-.69-.53c-.24-.19-.49-.37-.73-.57l-.65-.56-.68-.59-.62-.59-.64-.62c-.2-.2-.38-.41-.57-.61s-.41-.43-.6-.65-.36-.43-.54-.64-.38-.45-.55-.68l-.5-.67c-.17-.23-.35-.46-.51-.7s-.3-.46-.45-.7l-.48-.73-.41-.72c-.14-.25-.29-.5-.42-.76s-.25-.49-.37-.74-.26-.52-.38-.79-.22-.51-.33-.77-.23-.54-.34-.81-.19-.53-.28-.8-.2-.55-.29-.83-.17-.55-.25-.83-.17-.56-.24-.85-.13-.57-.2-.85-.14-.59-.2-.88L73,129c-.05-.3-.11-.6-.15-.9s-.08-.6-.11-.9-.07-.53-.1-.8v0c0-.07,0-.14,0-.21-.09,1.07-.15,2.15-.15,3.27C72.48,151.19,90.44,164.21,120.54,164.21Z"/><path class="cls-2" d="M186.08,122.86a.33.33,0,0,0-.2-.09,19.07,19.07,0,0,1,.63,3.36C186.64,124.62,186.55,123.27,186.08,122.86Z"/><path class="cls-2" d="M133.63,155.69l-.91.24Z"/><path class="cls-2" d="M75.67,137.27c-.13-.26-.26-.52-.38-.79C75.41,136.75,75.54,137,75.67,137.27Z"/><path class="cls-2" d="M154.37,146.76l-1,.57Z"/><path class="cls-2" d="M77.35,140.22l-.48-.73Z"/><path class="cls-2" d="M125.22,157.39l-.91.09Z"/><path class="cls-2" d="M126.84,157.17l-.9.13Z"/><path class="cls-2" d="M128.5,156.89l-.9.16Z"/><path class="cls-2" d="M73,129c-.05-.3-.11-.6-.15-.9C72.9,128.38,73,128.68,73,129Z"/><path class="cls-2" d="M131.89,156.15l-.92.22Z"/><path class="cls-2" d="M130.18,156.55l-.91.19Z"/><path class="cls-2" d="M76.46,138.77c-.14-.25-.29-.5-.42-.76C76.17,138.27,76.32,138.52,76.46,138.77Z"/><path class="cls-2" d="M74.34,134.1c-.1-.28-.2-.55-.29-.83C74.14,133.55,74.24,133.82,74.34,134.1Z"/><path class="cls-2" d="M73.8,132.44c-.08-.28-.17-.56-.24-.85C73.63,131.88,73.72,132.16,73.8,132.44Z"/><path class="cls-2" d="M123.63,157.55l-1,.06Z"/><path class="cls-2" d="M142.72,152.49l-1,.39Z"/><path class="cls-2" d="M140.86,153.24l-1,.37Z"/><path class="cls-2" d="M144.61,151.67c-.32.15-.65.28-1,.42C144,152,144.29,151.82,144.61,151.67Z"/><path class="cls-2" d="M135.4,155.16l-.93.28Z"/><path class="cls-2" d="M73.36,130.74c-.07-.3-.14-.59-.2-.88C73.22,130.15,73.29,130.44,73.36,130.74Z"/><path class="cls-2" d="M150.41,148.89l-1,.51Z"/><path class="cls-2" d="M137.2,154.58l-.95.31Z"/><path class="cls-2" d="M148.45,149.87l-1,.48Z"/><path class="cls-2" d="M146.52,150.8l-1,.45Z"/><path class="cls-2" d="M139,153.94l-1,.34Z"/><path class="cls-2" d="M152.38,147.85c-.34.19-.69.36-1,.54C151.69,148.21,152,148,152.38,147.85Z"/><path class="cls-2" d="M96.24,154c-.34-.12-.69-.23-1-.36C95.55,153.81,95.9,153.92,96.24,154Z"/><path class="cls-2" d="M84.39,147.8c-.24-.19-.49-.37-.73-.57C83.9,147.43,84.15,147.61,84.39,147.8Z"/><path class="cls-2" d="M98.22,154.69l-1.06-.32Z"/><path class="cls-2" d="M78.31,141.62c-.17-.23-.35-.46-.51-.7C78,141.16,78.14,141.39,78.31,141.62Z"/><path class="cls-2" d="M100.3,155.28,99.19,155Z"/><path class="cls-2" d="M87.4,149.88c-.28-.17-.56-.33-.82-.51C86.84,149.55,87.12,149.71,87.4,149.88Z"/><path class="cls-2" d="M102.44,155.81c-.38-.09-.77-.17-1.15-.27C101.67,155.64,102.06,155.72,102.44,155.81Z"/><path class="cls-2" d="M90.71,151.73l-.91-.46Z"/><path class="cls-2" d="M94.32,153.33c-.33-.13-.66-.25-1-.39C93.66,153.08,94,153.2,94.32,153.33Z"/><path class="cls-2" d="M92.48,152.56l-1-.42Z"/><path class="cls-2" d="M85.86,148.87c-.26-.18-.53-.35-.78-.54C85.33,148.52,85.6,148.69,85.86,148.87Z"/><path class="cls-2" d="M83,146.67l-.68-.59Z"/><path class="cls-2" d="M79.36,143c-.18-.23-.38-.45-.55-.68C79,142.52,79.18,142.74,79.36,143Z"/><path class="cls-2" d="M114.29,157.47l-1.47-.1Z"/><path class="cls-2" d="M117.05,157.61l-1.72-.07Z"/><path class="cls-2" d="M122.07,157.65l-1.53,0Z"/><path class="cls-2" d="M120.54,157.68c-.89,0-1.77,0-2.64,0C118.77,157.67,119.65,157.68,120.54,157.68Z"/><path class="cls-2" d="M111.75,157.27l-1.38-.13Z"/><path class="cls-2" d="M107,156.68l-1.3-.21Z"/><path class="cls-2" d="M81.71,145.49l-.64-.62Z"/><path class="cls-2" d="M80.5,144.26c-.2-.22-.41-.43-.6-.65C80.09,143.83,80.3,144,80.5,144.26Z"/><path class="cls-2" d="M109.33,157l-1.33-.17Z"/><path class="cls-2" d="M104.67,156.27l-1.22-.23Z"/><path class="cls-2" d="M75,135.71c-.12-.27-.23-.54-.34-.81C74.73,135.17,74.84,135.44,75,135.71Z"/><path class="cls-2" d="M170.82,136.08l-1.08.78Z"/><path class="cls-2" d="M181.13,128l0,0-.78.65Z"/><path class="cls-2" d="M160.43,143.15l-1,.65Z"/><path class="cls-2" d="M162.48,141.84l-1,.67Z"/><path class="cls-2" d="M179.31,129.51l-1.08.88Z"/><path class="cls-2" d="M168.72,137.6l-1.07.75Z"/><path class="cls-2" d="M175.05,132.9l-1.09.83Z"/><path class="cls-2" d="M164.55,140.48l-1.06.7Z"/><path class="cls-2" d="M156.37,145.61l-1,.59Z"/><path class="cls-2" d="M166.63,139.07l-1.06.72Z"/><path class="cls-2" d="M72.65,126.38c0,.27.07.53.1.8,0-.29-.07-.57-.1-.85Z"/><path class="cls-2" d="M89,150.83c-.29-.16-.58-.31-.86-.48C88.43,150.52,88.72,150.67,89,150.83Z"/><path class="cls-2" d="M177.18,131.23l-1.09.85Z"/><path class="cls-2" d="M172.93,134.51l-1.09.82Z"/><path class="cls-2" d="M158.39,144.41l-1,.62Z"/><path class="cls-2" d="M120.54,77.16c28.63,0,59.38,22.69,77,38.16a2.45,2.45,0,0,0,3.25,0c17.64-15.47,48.39-38.16,77-38.16,41.79,0,63.82,21.64,65.44,49,.06-1.08.1-2.17.1-3.26,0-28.85-22.1-52.23-65.54-52.23-28.63,0-59.38,22.69-77,38.16a2.45,2.45,0,0,1-3.25,0c-17.64-15.47-48.39-38.16-77-38.16C77.1,70.63,55,94,55,122.86c0,1.09,0,2.18.11,3.26C56.72,98.8,78.76,77.16,120.54,77.16Z"/><path class="cls-3" d="M186.08,129.39c.47-.41.56-1.76.43-3.26a18.71,18.71,0,0,1-.56,3.1Z"/><path class="cls-3" d="M72.65,125.87c0-.27.07-.54.1-.8s.06-.61.11-.9.1-.61.15-.91l.15-.87c.06-.3.13-.59.2-.88s.13-.57.2-.85.16-.58.24-.86.16-.55.25-.83.19-.55.29-.83.18-.53.28-.8l.34-.81c.11-.25.21-.52.33-.77s.25-.52.38-.79.24-.5.37-.74.28-.51.42-.76l.41-.72.48-.73c.15-.23.29-.47.45-.69s.34-.48.52-.71.32-.45.49-.67.37-.45.55-.67.35-.44.54-.64.4-.44.6-.66.37-.41.57-.61l.65-.62c.2-.2.4-.4.61-.59l.68-.59.65-.56.73-.57.69-.53.78-.54.72-.5.82-.51c.25-.16.49-.32.75-.47l.86-.48c.27-.15.52-.3.79-.44l.91-.46.82-.4,1-.43.85-.38,1-.39.89-.35c.34-.13.69-.24,1-.36l.92-.32c.35-.12.71-.22,1.06-.33l1-.29c.36-.11.74-.2,1.11-.3l1-.26,1.15-.27,1-.23,1.22-.23,1-.2,1.3-.2,1-.16,1.33-.17,1-.13,1.38-.14,1.07-.1,1.47-.1,1-.07,1.72-.07.85,0q1.3,0,2.64,0l1.54,0,.54,0,1,.07c.22,0,.44,0,.65.06l1,.1.7.09.94.13.75.13.93.16.77.16.94.19.79.19.94.22.82.22.95.26.83.24,1,.29.85.28,1,.32.87.3,1,.36.88.33,1,.38.89.36,1,.42q.45.18.9.39l1,.44.92.42,1,.47.93.45,1,.5.94.47,1,.54,1,.5q.53.27,1,.57c.32.17.64.34,1,.52s.72.4,1.07.6l1,.54,1.08.64,1,.56,1.09.67c.33.19.65.39,1,.59l1.11.7,1,.61,1.12.73,1,.64,1.13.76c.33.22.65.43,1,.66l1.15.8,1,.67,1.17.84,1,.68,1.21.9.93.68,1.26,1,.88.67,1.43,1.11.72.56,1.91,1.53a2.43,2.43,0,0,0,.25.2l2.14,1.76h0c.63.53,1.27,1.06,1.91,1.61,1-1.41,2.15-3.14,2.83-3.07A4.21,4.21,0,0,0,185,121C160.85,100,137.48,88,120.54,88c-30.1,0-48.06,13-48.06,34.82,0,1.11.06,2.19.15,3.26,0-.07,0-.13,0-.2Z"/><path class="cls-3" d="M166.16,112.86l1.15.8Z"/><path class="cls-3" d="M157.84,107.5l1.09.67Z"/><path class="cls-3" d="M168.28,114.33l1.17.84Z"/><path class="cls-3" d="M75.29,115.76c.12-.27.25-.52.38-.79C75.54,115.24,75.41,115.49,75.29,115.76Z"/><path class="cls-3" d="M76,114.23c.13-.26.28-.51.42-.76C76.32,113.72,76.17,114,76,114.23Z"/><path class="cls-3" d="M99.19,97.26c.36-.11.74-.2,1.11-.3C99.93,97.06,99.55,97.15,99.19,97.26Z"/><path class="cls-3" d="M76.87,112.75l.48-.73Z"/><path class="cls-3" d="M159.9,108.76l1.11.7Z"/><path class="cls-3" d="M162,110.07l1.12.73Z"/><path class="cls-3" d="M155.8,106.3l1.08.64Z"/><path class="cls-3" d="M77.8,111.33c.16-.24.34-.48.52-.71C78.14,110.85,78,111.09,77.8,111.33Z"/><path class="cls-3" d="M101.29,96.7l1.15-.27Z"/><path class="cls-3" d="M164.06,111.44l1.13.76Z"/><path class="cls-3" d="M181.13,124.22,179,122.46l2.15,1.77Z"/><path class="cls-3" d="M82.33,106.16l.68-.59Z"/><path class="cls-3" d="M93.33,99.3l1-.39Z"/><path class="cls-3" d="M83.66,105l.73-.57Z"/><path class="cls-3" d="M91.53,100.11l1-.43Z"/><path class="cls-3" d="M88.15,101.89l.86-.48Z"/><path class="cls-3" d="M89.8,101l.91-.46Z"/><path class="cls-3" d="M85.08,103.91l.78-.54Z"/><path class="cls-3" d="M174.68,119.06l1.43,1.11Z"/><path class="cls-3" d="M172.54,117.43l1.26,1Z"/><path class="cls-3" d="M79.9,108.64c.19-.23.4-.44.6-.66C80.3,108.2,80.09,108.41,79.9,108.64Z"/><path class="cls-3" d="M97.16,97.88c.35-.12.71-.22,1.06-.33C97.87,97.66,97.51,97.76,97.16,97.88Z"/><path class="cls-3" d="M170.4,115.85l1.21.9Z"/><path class="cls-3" d="M95.21,98.56c.34-.13.69-.24,1-.36C95.9,98.32,95.55,98.43,95.21,98.56Z"/><path class="cls-3" d="M78.81,110c.18-.23.37-.45.55-.67C79.18,109.5,79,109.72,78.81,110Z"/><path class="cls-3" d="M176.83,120.73l1.91,1.53Z"/><path class="cls-3" d="M81.07,107.37l.65-.62Z"/><path class="cls-3" d="M127.67,95.21l.93.16Z"/><path class="cls-3" d="M73.16,122.39c.06-.3.13-.59.2-.88C73.29,121.8,73.22,122.09,73.16,122.39Z"/><path class="cls-3" d="M86.58,102.87l.82-.51Z"/><path class="cls-3" d="M129.37,95.53l.94.19Z"/><path class="cls-3" d="M131.1,95.91l.94.22Z"/><path class="cls-3" d="M103.45,96.2l1.22-.23Z"/><path class="cls-3" d="M132.86,96.35l.95.26Z"/><path class="cls-3" d="M73.56,120.66c.07-.29.16-.58.24-.86C73.72,120.08,73.63,120.37,73.56,120.66Z"/><path class="cls-3" d="M112.82,94.87l1.47-.1Z"/><path class="cls-3" d="M72.65,125.87v0c0-.29.07-.57.1-.85C72.72,125.33,72.68,125.6,72.65,125.87Z"/><path class="cls-3" d="M122.62,94.63l1,.07Z"/><path class="cls-3" d="M120.54,94.57l1.54,0Z"/><path class="cls-3" d="M124.31,94.76l1,.1Z"/><path class="cls-3" d="M110.37,95.11l1.38-.14Z"/><path class="cls-3" d="M72.86,124.17c0-.31.1-.61.15-.91C73,123.56,72.9,123.86,72.86,124.17Z"/><path class="cls-3" d="M117.9,94.6q1.3,0,2.64,0Q119.21,94.57,117.9,94.6Z"/><path class="cls-3" d="M126,95l.94.13Z"/><path class="cls-3" d="M115.33,94.7l1.72-.07Z"/><path class="cls-3" d="M147.81,102.06l1,.5Z"/><path class="cls-3" d="M134.64,96.85l1,.29Z"/><path class="cls-3" d="M74.62,117.34l.34-.81Z"/><path class="cls-3" d="M105.69,95.77l1.3-.2Z"/><path class="cls-3" d="M143.93,100.28l1,.44Z"/><path class="cls-3" d="M153.77,105.16c.36.19.72.4,1.07.6C154.49,105.56,154.13,105.35,153.77,105.16Z"/><path class="cls-3" d="M149.78,103l1,.54Z"/><path class="cls-3" d="M151.77,104.07q.53.27,1,.57Q152.3,104.34,151.77,104.07Z"/><path class="cls-3" d="M145.86,101.14l1,.47Z"/><path class="cls-3" d="M138.29,98l1,.36Z"/><path class="cls-3" d="M136.45,97.42l1,.32Z"/><path class="cls-3" d="M140.14,98.73l1,.38Z"/><path class="cls-3" d="M74.05,119c.09-.28.19-.55.29-.83C74.24,118.42,74.14,118.69,74.05,119Z"/><path class="cls-3" d="M108,95.41l1.33-.17Z"/><path class="cls-3" d="M142,99.47l1,.42Z"/><path class="cls-3" d="M183.05,125.84l.34.29,2.56,3.1a18.71,18.71,0,0,0,.56-3.1,19.07,19.07,0,0,0-.63-3.36C185.2,122.7,184,124.43,183.05,125.84Z"/><path class="cls-3" d="M343.27,126.12c-1.62,27.33-23.65,49-65.44,49-28.63,0-59.38-22.7-77-38.17a2.48,2.48,0,0,0-3.25,0c-17.64,15.47-48.39,38.17-77,38.17-41.78,0-63.82-21.64-65.43-49-.07,1.08-.11,2.17-.11,3.27,0,28.84,22.1,52.23,65.54,52.23,28.63,0,59.38-22.7,77-38.17a2.45,2.45,0,0,1,3.25,0c17.64,15.47,48.39,38.17,77,38.17,43.44,0,65.54-23.39,65.54-52.23C343.37,128.29,343.33,127.2,343.27,126.12Z"/><path class="cls-3" d="M212.29,129.39a.42.42,0,0,0,.21.08,17.3,17.3,0,0,1-.63-3.35C211.73,127.62,211.82,129,212.29,129.39Z"/><path class="cls-3" d="M215.33,126.41a10.09,10.09,0,0,1,1.27-1.65l.62-.51,0,0,.77-.63,1.05-.86,1.09-.88,1-.83,1.1-.87,1-.8,1.1-.84,1-.78,1.09-.81,1-.76,1.08-.78,1-.74,1.08-.76,1-.7,1.08-.74,1-.68,1.06-.7,1-.66,1.06-.68,1-.63,1.06-.65c.33-.2.65-.41,1-.6l1.05-.63,1-.57,1.05-.61.95-.54,1-.58,1-.52,1-.54,1-.5,1-.51c.31-.16.62-.32.94-.47l1-.49.92-.44,1-.46.91-.41,1-.43.89-.38,1-.41.87-.35,1-.37.87-.33,1-.34.85-.3,1-.31.83-.27.94-.28c.28-.08.55-.17.83-.24l.92-.25.82-.22.93-.21.78-.19.92-.18.77-.16.89-.15.76-.13.91-.12.72-.1c.3,0,.61-.06.91-.09l.68-.07,1-.06.59,0,1.52,0q1.34,0,2.64,0l.85,0,1.73.07,1,.07,1.47.1,1.06.1,1.38.14,1.05.13,1.33.17,1,.16,1.29.2,1,.2,1.22.23,1,.23,1.17.27,1,.26c.37.1.74.19,1.1.3l1,.29c.35.11.71.21,1.06.33l.92.32c.35.12.69.23,1,.36l.89.35,1,.39.85.38.95.43.82.4.91.46c.27.14.53.29.79.44l.86.48.76.47.82.51.72.5.77.54.69.53.73.57.65.56.69.59c.21.19.4.39.6.58l.65.63c.2.2.38.41.57.61s.41.43.61.66.35.42.53.64.38.44.56.67.32.45.49.67l.52.71c.15.22.3.46.45.69s.32.48.47.73l.41.73c.14.25.29.49.43.75s.24.5.37.75.26.52.38.78.22.52.32.77.24.54.34.81.19.54.29.8.2.55.29.83l.24.83c.08.28.17.57.24.86s.14.56.2.85.14.58.2.88.1.58.15.87.11.6.16.91.07.6.1.9.08.53.1.8v0a1.36,1.36,0,0,1,0,.2c.1-1.07.16-2.15.16-3.26,0-21.81-18-34.82-48.07-34.82-16.94,0-40.31,12-64.48,32.95a4.8,4.8,0,0,0-.93,2l2.56,3.11Z"/><path class="cls-3" d="M244,105.49l1-.58Z"/><path class="cls-3" d="M321.91,113.48c.14.25.29.49.43.75C322.2,114,322.05,113.73,321.91,113.48Z"/><path class="cls-3" d="M321,112c.15.24.32.48.47.73C321.35,112.5,321.18,112.26,321,112Z"/><path class="cls-3" d="M242,106.64l1.05-.61Z"/><path class="cls-3" d="M237.94,109.09l1.06-.65Z"/><path class="cls-3" d="M322.71,115c.12.26.26.52.38.78C323,115.5,322.83,115.24,322.71,115Z"/><path class="cls-3" d="M240,107.84l1.05-.63Z"/><path class="cls-3" d="M320.06,110.62l.52.71Z"/><path class="cls-3" d="M249.92,102.37l1-.49Z"/><path class="cls-3" d="M317.87,108c.21.22.41.43.61.66C318.28,108.41,318.08,108.2,317.87,108Z"/><path class="cls-3" d="M316.65,106.74l.65.63Z"/><path class="cls-3" d="M323.41,116.53c.12.27.24.54.34.81C323.65,117.07,323.53,116.8,323.41,116.53Z"/><path class="cls-3" d="M246,104.39l1-.54Z"/><path class="cls-3" d="M284.09,94.77l1.47.1Z"/><path class="cls-3" d="M248,103.35l1-.51Z"/><path class="cls-3" d="M324,118.14c.09.28.2.55.29.83C324.24,118.69,324.13,118.42,324,118.14Z"/><path class="cls-3" d="M235.89,110.4l1.06-.68Z"/><path class="cls-3" d="M325.72,125.87c0-.27-.06-.54-.1-.8,0,.28.07.56.1.85Z"/><path class="cls-3" d="M223.32,119.35l1.1-.84Z"/><path class="cls-3" d="M221.19,121l1.1-.87Z"/><path class="cls-3" d="M217.24,124.22l0,0,.79-.66Z"/><path class="cls-3" d="M227.55,116.16l1.08-.78Z"/><path class="cls-3" d="M219.06,122.73l1.09-.88Z"/><path class="cls-3" d="M225.44,117.73l1.09-.81Z"/><path class="cls-3" d="M324.57,119.8c.08.28.17.57.24.86C324.74,120.37,324.65,120.08,324.57,119.8Z"/><path class="cls-3" d="M233.82,111.76l1.06-.7Z"/><path class="cls-3" d="M325.36,123.26c.06.3.11.6.16.91C325.47,123.86,325.42,123.56,325.36,123.26Z"/><path class="cls-3" d="M251.85,101.44l1-.46Z"/><path class="cls-3" d="M229.66,114.64l1.08-.76Z"/><path class="cls-3" d="M231.74,113.18l1.08-.74Z"/><path class="cls-3" d="M325,121.51c.07.29.14.58.2.88C325.15,122.09,325.08,121.8,325,121.51Z"/><path class="cls-3" d="M319,109.28c.19.22.38.44.56.67C319.39,109.72,319.2,109.5,319,109.28Z"/><path class="cls-3" d="M271.53,95.07l.91-.12Z"/><path class="cls-3" d="M293.7,96l1.22.23Z"/><path class="cls-3" d="M295.92,96.43l1.17.27Z"/><path class="cls-3" d="M273.16,94.85c.3,0,.61-.06.91-.09C273.77,94.79,273.46,94.81,273.16,94.85Z"/><path class="cls-3" d="M298.08,97c.37.1.74.19,1.1.3C298.82,97.15,298.45,97.06,298.08,97Z"/><path class="cls-3" d="M268.19,95.69l.92-.18Z"/><path class="cls-3" d="M269.88,95.35l.89-.15Z"/><path class="cls-3" d="M300.15,97.55c.35.11.71.21,1.06.33C300.86,97.76,300.5,97.66,300.15,97.55Z"/><path class="cls-3" d="M277.83,94.57q1.34,0,2.64,0Q279.17,94.57,277.83,94.57Z"/><path class="cls-3" d="M289.05,95.24l1.33.17Z"/><path class="cls-3" d="M281.32,94.63l1.73.07Z"/><path class="cls-3" d="M286.62,95l1.38.14Z"/><path class="cls-3" d="M274.75,94.69l1-.06Z"/><path class="cls-3" d="M291.39,95.57l1.29.2Z"/><path class="cls-3" d="M302.13,98.2c.35.12.69.23,1,.36C302.82,98.43,302.48,98.32,302.13,98.2Z"/><path class="cls-3" d="M276.31,94.6l1.52,0Z"/><path class="cls-3" d="M304.05,98.91l1,.39Z"/><path class="cls-3" d="M312.52,103.37l.77.54Z"/><path class="cls-3" d="M259.36,98.3l1-.34Z"/><path class="cls-3" d="M257.51,99l1-.37Z"/><path class="cls-3" d="M311,102.36l.82.51Z"/><path class="cls-3" d="M255.65,99.76l1-.41Z"/><path class="cls-3" d="M253.76,100.57l1-.43Z"/><path class="cls-3" d="M266.48,96.09l.93-.21Z"/><path class="cls-3" d="M314,104.44l.73.57Z"/><path class="cls-3" d="M261.17,97.66l1-.31Z"/><path class="cls-3" d="M263,97.08l.94-.28Z"/><path class="cls-3" d="M305.89,99.68l.95.43Z"/><path class="cls-3" d="M309.36,101.41l.86.48Z"/><path class="cls-3" d="M315.36,105.57l.69.59Z"/><path class="cls-3" d="M264.74,96.56l.92-.25Z"/><path class="cls-3" d="M307.66,100.51l.91.46Z"/><path class="cls-3" d="M215.33,126.41l-.35-.29L212.42,123a17.85,17.85,0,0,0-.55,3.11,17.3,17.3,0,0,0,.63,3.35C213.17,129.54,214.35,127.81,215.33,126.41Z"/><path class="cls-4" d="M345.07,10.82c-12.28,0,7,37.05,23.56,70.06C364.76,47.87,357.35,10.82,345.07,10.82Z"/><path class="cls-4" d="M368.63,80.88c2.4,20.44,3.44,39.34,3.44,46.94s-1,26.5-3.44,46.93c10.24-20.43,19.44-39.33,19.44-46.93S378.87,101.32,368.63,80.88Z"/><path class="cls-4" d="M345.07,244.82c12.28,0,19.69-37,23.56-70.07C352.08,207.77,332.79,244.82,345.07,244.82Z"/><path class="cls-5" d="M56.3,244.82c12.28,0-7-37-23.56-70.07C36.61,207.77,44,244.82,56.3,244.82Z"/><path class="cls-5" d="M32.74,80.88C22.49,101.32,13.3,120.22,13.3,127.82s9.19,26.5,19.44,46.93c-2.4-20.43-3.44-39.33-3.44-46.93S30.34,101.32,32.74,80.88Z"/><path class="cls-5" d="M56.3,10.82C44,10.82,36.61,47.87,32.74,80.88,49.28,47.87,68.58,10.82,56.3,10.82Z"/></svg>